PathFileType	4	(X/Y/Z)	4_coords_data.trc
DataRate	CameraRate	NumFrames	NumMarkers	Units	OrigDataRate	OrigDataStartFrame	OrigNumFrames
30.0	30.0	6	21	m	30.0	19	47
Frame#	Time	THUMB_TIP	THUMB_IP	THUMB_MCP	THUMB_CMC	INDEX_TIP	INDEX_DIP	INDEX_PIP	INDEX_MCP	MIDDLE_TIP	MIDDLE_DIP	MIDDLE_PIP	MIDDLE_MCP	RING_TIP	RING_DIP	RING_PIP	RING_MCP	PINKY_TIP	PINKY_DIP	PINKY_PIP	PINKY_MCP	WRIST
X1	Y1	Z1	X2	Y2	Z2	X3	Y3	Z3	X4	Y4	Z4	X5	Y5	Z5	X6	Y6	Z6	X7	Y7	Z7	X8	Y8	Z8	X9	Y9	Z9	X10	Y10	Z10	X11	Y11	Z11	X12	Y12	Z12	X13	Y13	Z13	X14	Y14	Z14	X15	Y15	Z15	X16	Y16	Z16	X17	Y17	Z17	X18	Y18	Z18	X19	Y19	Z19	X20	Y20	Z20	X21	Y21	Z21
17	0.5999999999999973	0.48827677640596845	-0.01668514503776508	-0.1683916651357995	0.49293865546036975	-0.018314061508013624	-0.14595033017517195	0.4789498384892752	-0.02773453754284494	-0.11978952684220084	0.47856091371422627	-0.02721102157338884	-0.07518611140628301	0.4978534518203248	-0.015949256513108967	-0.09878745098712277	0.5153213156172465	-0.01571674500755149	-0.10356444510183305	0.5298975359330437	-0.0011310929843678652	-0.1179450705876714	0.4929138708565386	0.019983218329217012	-0.11811962505458323	0.5011285834151868	-0.017253699022747204	-0.08559618048614204	0.5185241018981396	-0.012381174831930686	-0.0868824326850356	0.5377575341467125	0.0062616066328657904	-0.09836856925027837	0.5012192956914908	0.031969481074346495	-0.0979100463060143	0.5007089299645813	-0.006405969039925186	-0.07434238416699224	0.5182764016258988	-0.006165832933727855	-0.07030180573324002	0.5391258756848019	0.006428962852563558	-0.0754835553961194	0.5112590248200789	0.035722221083602124	-0.07573748273411579	0.504512039026641	-0.007773373298833652	-0.055494451728728744	0.5216251195973552	-0.0074187574723301175	-0.05562376141837111	0.5368480103458799	0.007034801939007851	-0.056036358802524666	0.5113116395566278	0.03223956152553864	-0.05236248998355186	0.4622830810018608	-0.023011742144276925	-0.051989820119430985
18	0.6333333333333304	0.48770559123833535	-0.016377375224108315	-0.1684669451521596	0.49250690839285505	-0.01804896806372369	-0.14605817162569762	0.4786754590996166	-0.027586847841127193	-0.11985626597362015	0.4784857905364326	-0.027143815288482198	-0.07525068618820052	0.49754455272660014	-0.01571177453530548	-0.09885159033406637	0.5150101317644297	-0.01553947640324349	-0.10363947736563034	0.529635693934726	-0.0010574795019918648	-0.1180746611176628	0.49267954171142736	0.020105542816555633	-0.11814809947990212	0.5009532028078947	-0.017167618498377224	-0.08565412887321239	0.5183164748324971	-0.012197665309588768	-0.08700184913384118	0.5375759403526673	0.006404547796224125	-0.09851011596439846	0.5010214611681016	0.03208701111662049	-0.09793648686676487	0.5005516361806666	-0.006307359252622713	-0.0743646047249647	0.518136152102409	-0.006044324332177831	-0.07040031255250623	0.5390156750808175	0.006491524518289049	-0.0756039644232952	0.5111565298205922	0.035792717238372074	-0.07577415417101324	0.5044526190930964	-0.007613085633276562	-0.05555576723186534	0.5215675119311931	-0.007379213058837375	-0.05571622519954045	0.5368096884908911	0.007052020836139317	-0.0561932587323975	0.5112921751573605	0.0322566376129898	-0.052389673922616564	0.4622830810018609	-0.023011742144276925	-0.051989820119430985
19	0.6666666666666637	0.48732763688256353	-0.016138479941553263	-0.16855611704579976	0.4921546483095012	-0.01784790198137698	-0.14615571890259743	0.4784160730160043	-0.02746601532536208	-0.11993428788506588	0.47839574826635867	-0.02705930060600381	-0.07532796355721288	0.49714500604834433	-0.015288505071590408	-0.09901662773672648	0.5146249264859006	-0.015248555760200011	-0.10375485372851073	0.5293319683235791	-0.0009095406678685247	-0.1182498666490523	0.49237179217001614	0.020246514017775108	-0.11819673628426702	0.5006699222231198	-0.01692868223393862	-0.08576654811465534	0.5180155985429062	-0.011901242738285855	-0.08712756432570895	0.5373435612981916	0.00660149959295564	-0.09868126208677158	0.5007566349018764	0.03223459232263293	-0.09798176585205814	0.500288551404447	-0.005989976598370639	-0.07437241401511896	0.5178997637711708	-0.005771502822823571	-0.07052566627403245	0.5388419145570296	0.006648632669832399	-0.07575505761590268	0.5109634845807908	0.03593188749886733	-0.07582550389154769	0.5043101338552533	-0.007332598145081914	-0.05559265889884102	0.5214247339762881	-0.007158569076812893	-0.055837968051681564	0.536711515296439	0.007220911208128622	-0.05643536457399062	0.5111664698349194	0.03236748660466482	-0.052437383934314685	0.4622830810018609	-0.023011742144276925	-0.051989820119430985
20	0.6999999999999968	0.487216397032295	-0.015982685878396463	-0.16864284329015167	0.4919353844507932	-0.01772513572806378	-0.14622198188240348	0.47821587379999286	-0.02738695825231585	-0.12000663879839185	0.4783104745939515	-0.026978597274515348	-0.0754004251953343	0.4968674165799294	-0.014820408487022929	-0.09922658146145585	0.5143601689956459	-0.014930742517994533	-0.10391608456136514	0.5290734815709458	-0.0006878075880191181	-0.11849919364831946	0.492057849197972	0.020369753547170744	-0.1182580027144044	0.5004202353482303	-0.016405156743342197	-0.08594723222329237	0.517810373286995	-0.011533567895622099	-0.0873076456051407	0.5371622595055926	0.006882363898024657	-0.09895957703105462	0.5004761374244997	0.032366881379277346	-0.09805639576526742	0.5000334456325386	-0.0054133041333830345	-0.07434318352604308	0.5176934497635604	-0.005359260607559091	-0.07072084541515211	0.5386963872822168	0.006919893946154554	-0.07603864176640762	0.5107092730209396	0.0360991710744375	-0.07592884378333437	0.5042401517611342	-0.006902865052580087	-0.05569130165929337	0.5213531439680237	-0.0068069957396837966	-0.0560604991698293	0.5366341721235777	0.007570049429679648	-0.05683688161891698	0.5109645776524244	0.03254388679783715	-0.05256337980010811	0.4622830810018609	-0.023011742144276925	-0.051989820119430985
21	0.7333333333333302	0.48730749711423127	-0.01588507656248006	-0.16868197018916198	0.4917932234830311	-0.017664060916270152	-0.14621614116788562	0.4780084856454948	-0.02734987601699168	-0.1200439041869732	0.4782679489096546	-0.026924942816237585	-0.07543849968718808	0.49684950756080193	-0.014614812023961421	-0.0993197981568415	0.5143121277206755	-0.014710312776742063	-0.10412060816747415	0.5288815328208916	-0.00042398767426454764	-0.11880540244904719	0.4917640006812408	0.020449572891705015	-0.11833703169762078	0.500242660402753	-0.01559798275216584	-0.0861095902208352	0.5177510792825065	-0.011184842035365627	-0.08751652211144378	0.5370475025359811	0.00717408312167811	-0.09934899719913515	0.500228924213407	0.03245479045175825	-0.09815482460050656	0.4998833784099621	-0.004613137300040426	-0.07413634710126243	0.5176252237106805	-0.004893695978173795	-0.07095072123598883	0.5386281417263353	0.0073034802380473884	-0.07645402080789437	0.5104237591498569	0.03627059924914666	-0.07608031815007832	0.5043683293676989	-0.006409155415877832	-0.055853036378623766	0.5214750721026518	-0.006291577486561173	-0.056440853042794836	0.5366873030027028	0.008146257489620168	-0.05741500459367693	0.5107285196969691	0.03274766959631514	-0.052746434936647824	0.4622830810018608	-0.023011742144276925	-0.051989820119430985
22	0.7666666666666633	0.48762442958638685	-0.01584774603270034	-0.16865090820827966	0.49176175759546625	-0.017664289316256854	-0.14612131239645354	0.4778324149906781	-0.027354671348958193	-0.12002744509666957	0.47829432274773365	-0.02690436433833776	-0.07542392657155589	0.49738919936985526	-0.014962634709920763	-0.09924805381808216	0.5147459935205744	-0.01467062736622704	-0.104411040213647	0.5288373226878498	-4.573205870306296e-05	-0.11922848643570111	0.49152835503162373	0.020473345311632585	-0.11842568490552347	0.5005137491214497	-0.015069965355599235	-0.08601426021278996	0.5180851145875187	-0.011055296836615214	-0.0877833142935115	0.5370399015682144	0.00748504643732073	-0.09988212711961403	0.5000464541910358	0.03248555121238195	-0.09826734133070636	0.5000755813979226	-0.004196396462564422	-0.07359901669792168	0.517952548739259	-0.004613254926575716	-0.07130985359805786	0.538715856526373	0.007864995665595953	-0.07708551727390839	0.5101199078668534	0.036436603774678944	-0.07627572450837411	0.5048089135605202	-0.00599355371581467	-0.056167531636757195	0.5219010430178942	-0.005776091878783474	-0.057068542714269366	0.5368573569380215	0.008916997382370173	-0.05817931761782785	0.5104776889071475	0.032960732393102266	-0.05299324277122369	0.4622830810018608	-0.023011742144276925	-0.051989820119430985
